<svg width="158" height="48" viewBox="0 0 158 48" fill="none" xmlns="http://www.w3.org/2000/svg">
<path d="M2.38281 38V9.71875H21.0156V14.5625H8.24219V21.4375H19.8047V26.2812H8.24219V38H2.38281ZM24.7656 38V16.7891H30.5469V38H24.7656ZM27.6562 14.0156C25.8984 14.0156 24.4922 12.6875 24.4922 11.0859C24.4922 9.44531 25.8984 8.11719 27.6562 8.11719C29.375 8.11719 30.7812 9.44531 30.7812 11.0859C30.7812 12.6875 29.375 14.0156 27.6562 14.0156ZM40.8203 25.7344V38H35.0391V16.7891H40.5469V20.5H40.7812C41.7578 18.0391 44.0234 16.5156 47.1484 16.5156C51.5625 16.5156 54.4922 19.5234 54.4531 24.4844V38H48.7109V25.5C48.7109 22.8828 47.2656 21.3203 44.8828 21.3203C42.4609 21.3203 40.8203 22.9219 40.8203 25.7344Z" fill="#4987FF"/>
<path d="M59.0625 38V9.71875H70.1562C76.6016 9.71875 80.2734 13.6641 80.2734 19.25C80.2734 24.9141 76.5234 28.7812 70 28.7812H64.9219V38H59.0625ZM64.9219 24.0547H69.0625C72.5391 24.0547 74.2188 22.1016 74.2188 19.25C74.2188 16.4375 72.5391 14.5234 69.0625 14.5234H64.9219V24.0547ZM82.3047 32.0625C82.3047 27.3359 86.1328 25.7734 90.1953 25.5391C91.7188 25.4414 94.5703 25.3047 95.4688 25.2656V23.5469C95.4297 21.7891 94.2188 20.7344 92.0703 20.7344C90.1172 20.7344 88.8672 21.6328 88.5547 23.0781H83.0469C83.3984 19.4062 86.6016 16.5156 92.2266 16.5156C96.8359 16.5156 101.211 18.5859 101.211 23.7031V38H95.7422V35.0703H95.5859C94.5312 37.0234 92.5391 38.3906 89.375 38.3906C85.3125 38.3906 82.3047 36.2812 82.3047 32.0625ZM87.8516 31.9062C87.8516 33.5469 89.1797 34.4062 91.0156 34.4062C93.6328 34.4062 95.5078 32.6484 95.4688 30.4219V28.8594C94.5898 28.8984 92.1289 29.0352 91.1328 29.1328C89.1406 29.3281 87.8516 30.2656 87.8516 31.9062ZM111.406 9.71875V38H105.625V9.71875H111.406ZM119.297 38.3516C117.461 38.3516 115.977 36.8672 116.016 35.0703C115.977 33.2734 117.461 31.8281 119.297 31.8281C121.016 31.8281 122.539 33.2734 122.539 35.0703C122.539 36.8672 121.016 38.3516 119.297 38.3516ZM126.172 32.0625C126.172 27.3359 130 25.7734 134.062 25.5391C135.586 25.4414 138.438 25.3047 139.336 25.2656V23.5469C139.297 21.7891 138.086 20.7344 135.938 20.7344C133.984 20.7344 132.734 21.6328 132.422 23.0781H126.914C127.266 19.4062 130.469 16.5156 136.094 16.5156C140.703 16.5156 145.078 18.5859 145.078 23.7031V38H139.609V35.0703H139.453C138.398 37.0234 136.406 38.3906 133.242 38.3906C129.18 38.3906 126.172 36.2812 126.172 32.0625ZM131.719 31.9062C131.719 33.5469 133.047 34.4062 134.883 34.4062C137.5 34.4062 139.375 32.6484 139.336 30.4219V28.8594C138.457 28.8984 135.996 29.0352 135 29.1328C133.008 29.3281 131.719 30.2656 131.719 31.9062ZM149.492 38V16.7891H155.273V38H149.492ZM152.383 14.0156C150.625 14.0156 149.219 12.6875 149.219 11.0859C149.219 9.44531 150.625 8.11719 152.383 8.11719C154.102 8.11719 155.508 9.44531 155.508 11.0859C155.508 12.6875 154.102 14.0156 152.383 14.0156Z" fill="#121212"/>
<rect y="40" width="158" height="2" fill="#4987FF"/>
</svg>
