<svg width="100" height="100" viewBox="0 0 100 100" fill="none" xmlns="http://www.w3.org/2000/svg">
<g clip-path="url(#clip0_105_242)">
<path d="M73.4996 26.4883C74.3779 22.69 77.761 20 81.6595 20V20C86.2715 20 90.0155 23.7285 90.0348 28.3404L90.25 80L90.1942 81.7846C90.073 85.6629 91.9155 89.3409 95.0943 91.566L98.5975 94.0183C99.4765 94.6336 100 95.639 100 96.7119V96.7119C100 98.5279 98.5279 100 96.7119 100H90H71.5917C63.8724 100 58.161 92.8171 59.9002 85.2963L73.4996 26.4883Z" fill="#4987FF"/>
<rect width="90" height="100" rx="12" transform="matrix(-1 0 0 1 90 0)" fill="#4987FF"/>
<path d="M25 78V50M65 22H29C26.7909 22 25 23.7909 25 26V50M25 50H65" stroke="white" stroke-width="8" stroke-linecap="round" stroke-linejoin="round"/>
<path d="M36 36L59 36" stroke="#325AA7" stroke-width="4" stroke-linecap="round"/>
<path d="M36 64L59 64" stroke="#325AA7" stroke-width="4" stroke-linecap="round"/>
</g>
<defs>
<clipPath id="clip0_105_242">
<rect width="100" height="100" fill="white"/>
</clipPath>
</defs>
</svg>
